# xmcd CD database file
#
# Track frame offsets:
#	150
#	24339
#	51140
#	77018
#	101351
#	134837
#	156004
#	179529
#	199841
#
# Disc length: 2773 seconds
#
# Revision: 0
# Processed by: cddbd v1.5.2PL0 Copyright (c) Steve Scherf et al.
# Submitted via: CDex 1.70beta2
#
DISCID=720ad309
DTITLE=Roberta Gambarini and Andrea Donati - Under Italian Skies 2
DYEAR=1900
DGENRE=Jazz
TTITLE0=Il CIelo della mia memoria
TTITLE1=Danza dei veli
TTITLE2=Un pernod..., s'il vous plait
TTITLE3=Arimo, i signori
TTITLE4=Lampare
TTITLE5=Teatro eden
TTITLE6=Per sempre
TTITLE7=La plage
TTITLE8=In punta di piedi
EXTD=
EXTT0=
EXTT1=
EXTT2=
EXTT3=
EXTT4=
EXTT5=
EXTT6=
EXTT7=
EXTT8=
PLAYORDER=
